PathFileType	3	(X/Y/Z)	D:\Jess\Healthy\Labelled\HA07\20250404\SRRun01.trc
DataRate	CameraRate	NumFrames	NumMarkers	Units	OrigDataRate	OrigDataStartFrame	OrigNumFrames
250.0	250.0	4	33	mm	250.0	35000	2501
Frame#	Time	C7			T10			CLAV			LSHO			RSHO			LASIS			RASIS			LPSIS			RPSIS			LILCR			RILCR			LGTR			LTHI			LLTHI			LLEP			LPSH			LLSH			LDSH			LLMAL			LTOE			L5TH			LHEE			RGTR			RTHI			RLTHI			RLEP			RPSH			RLSH			RDSH			RLMAL			RTOE			R5TH			RHEE			
		X1	Y1	Z1	X2	Y2	Z2	X3	Y3	Z3	X4	Y4	Z4	X5	Y5	Z5	X6	Y6	Z6	X7	Y7	Z7	X8	Y8	Z8	X9	Y9	Z9	X10	Y10	Z10	X11	Y11	Z11	X12	Y12	Z12	X13	Y13	Z13	X14	Y14	Z14	X15	Y15	Z15	X16	Y16	Z16	X17	Y17	Z17	X18	Y18	Z18	X19	Y19	Z19	X20	Y20	Z20	X21	Y21	Z21	X22	Y22	Z22	X23	Y23	Z23	X24	Y24	Z24	X25	Y25	Z25	X26	Y26	Z26	X27	Y27	Z27	X28	Y28	Z28	X29	Y29	Z29	X30	Y30	Z30	X31	Y31	Z31	X32	Y32	Z32	X33	Y33	Z33	

1	139.996	1135.780737293115	1335.045165143691	-299.7366022963874	1044.266044456981	1134.167693557408	-283.766860429044	1257.313926738131	1238.634315458476	-305.3036791958575	1174.225815993567	1313.721867076835	-457.1683007130011	1192.972127847607	1315.986059358493	-153.2715802024083	1185.161132293365	897.6098306137299	-409.7508855475966	1204.598660294581	883.339341188183	-179.0181056247384	1026.455054988778	939.9656940904906	-288.8597693549955	1032.649813047861	935.8595605035904	-248.3416305878775	1119.974180511147	927.4025946465791	-449.8057562304715	1143.270661887814	912.0647082394779	-135.1082008718925	1106.28203699656	822.491209939082	-466.5121580976237	1239.396163971496	693.0242097813659	-404.6109224996085	1154.993085938749	586.5206025578568	-442.8320921683296	1172.445538935753	427.0118965534246	-408.3191998484318	1204.416101639599	343.3910892626866	-352.3562070631691	1080.184789831023	271.6360089362065	-396.0479868572115	1092.582563042368	169.1907721359922	-314.141251194775	1002.571192216767	104.0389033577115	-336.5703292478209	1123.687230008255	58.21946721209122	-332.7503056176554	1080.415923000549	45.49940121023747	-370.7761142822807	924.186212395743	88.05951281676452	-286.6544277199736	1152.71273629177	803.2548254067901	-128.3801059820875	1275.146474775812	693.1501420597588	-215.2488746419631	1238.666926840864	580.7279891811853	-140.4210836627221	1269.499576517649	426.7549901936821	-168.3370012525811	1229.498049094608	352.3692172221241	-224.9679979136297	1112.288248252027	388.4414902283129	-149.0567251728482	1024.509372296938	302.7670013641987	-209.4499052890639	922.7588910380337	313.4503845961653	-171.0280978027899	915.1486809550477	186.0512462057219	-179.1691911870067	880.5648106858114	214.0055256698141	-138.8732554349323	874.2454425686217	378.7822793698525	-218.0352976937306	
2	140	1135.428804576208	1337.150832718215	-300.2003245512309	1044.127117611768	1136.183321959725	-285.5919144345036	1256.985580473837	1241.023367698781	-303.843975474884	1176.207710529167	1315.808610517861	-456.8974557803851	1190.446589613344	1318.27213988288	-152.9808591126335	1185.641536255168	898.8397913558067	-410.0097190248155	1203.65867208377	885.8298221321921	-179.0346404251634	1026.317587465614	942.0229809832294	-289.962965937228	1032.181503441088	938.0192382224894	-249.3905913348895	1120.73666741038	928.8414602496467	-450.1953433301553	1142.12083757209	914.6781145001208	-135.4498212996052	1106.027055951366	823.9351450630677	-466.7092108152584	1236.473779053939	692.8233535345252	-404.3775572417804	1149.678615980376	587.7636862430975	-442.0969907977915	1164.529204853682	427.9278022352622	-407.6487535658738	1195.406640383978	343.8508869166876	-351.5533892770324	1070.876644036629	273.0232500402107	-395.7310644630502	1082.349650082436	170.3266382075495	-314.0918187720735	991.9643858663346	105.5581561624378	-336.8790401557067	1112.334574953588	58.1482887307742	-332.8100545180039	1069.016304616699	45.70105129628365	-370.7581854820821	913.4323614837953	90.57731883876875	-287.2002086000272	1151.740395337757	805.9279958106345	-128.3701610528263	1276.079612332497	697.9003819983407	-214.9780874362023	1241.392085209572	585.1007029466153	-140.4904692786525	1274.772211319491	431.9095256946422	-168.3446737895015	1237.159972290687	356.1015549620436	-224.6617343935957	1118.898877075329	389.2990774711093	-149.3560803711812	1034.181326148369	300.4730030276347	-209.1562136418696	932.2860573285	308.1495869913331	-170.8491963214288	929.3814287435548	181.0330795772978	-178.6710901085725	893.9738557155615	207.6944153607619	-138.3596212577634	881.5107571283954	371.3470926123534	-217.9132766385297	
3	140.004	1135.082144201138	1339.245927247127	-300.658274441436	1043.991866178533	1138.191439824206	-287.4022564717023	1256.665764563825	1243.397527686166	-302.3975182237891	1178.172945167792	1317.885813206863	-456.6284089725461	1187.946705481748	1320.544456049829	-152.6928263650444	1186.121431183036	900.0677853173881	-410.269046716073	1202.730185125316	888.313309721369	-179.0489114502929	1026.182959232573	944.0663649285107	-291.0570324954577	1031.717439041916	940.1655972405189	-250.4310544670367	1121.490068897232	930.2706277781525	-450.5830085557997	1140.984270343126	917.2823596658679	-135.78643447196	1105.772828908256	825.3711619157719	-466.8994542171959	1233.585622400492	692.6388815351326	-404.1246706509829	1144.437712844758	589.0027527020317	-441.3692630496964	1156.689408407047	428.8406275542824	-406.9841799987312	1186.475099450589	344.3115752312362	-350.7517267863858	1061.655579180839	274.4044512975375	-395.4190543732858	1072.20342691741	171.4564995771539	-314.0375991942118	981.4514259226036	107.0647714046573	-337.1817996627948	1101.084553213524	58.07781924939684	-332.8651373020716	1057.722455747939	45.89211348299868	-370.7387054361681	902.76739071348	93.07276923471348	-287.7382346379407	1150.786440124326	808.5863284937394	-128.3541667898514	1276.989097817897	702.6109371857106	-214.7253848733265	1244.097022924341	589.4432650176811	-140.546103224827	1279.990555277181	437.0340780766237	-168.3506105466052	1244.753285493951	359.8157434718227	-224.3532630443159	1125.424381363026	390.1631275499731	-149.6571617878612	1043.75359594726	298.2008000391266	-208.8614906363201	941.7029169491185	302.8895433322686	-170.6718662136178	943.4669889196364	176.0453090328992	-178.1782057502283	907.2357763585394	201.423371132359	-137.853262584396	888.6894598460473	363.9721635407397	-217.7959672506605	
4	140.008	1134.747275684656	1341.347510529558	-301.108539443474	1043.872379535845	1140.209035134835	-289.194580725278	1256.362541154528	1245.773452683756	-300.9686200274464	1180.118081477014	1319.975995057089	-456.3543198860289	1185.485868165727	1322.815494800159	-152.4124915903012	1186.615692926654	901.3110109159244	-410.5246157252866	1201.827303918292	890.8169221414715	-179.0642593628373	1026.067113933952	946.1115008276796	-292.1400975163529	1031.272103298422	942.3162012920906	-251.4612505539756	1122.248588335398	931.7037130967755	-450.96551814947	1139.878710524434	919.9057964094753	-136.1187950337399	1105.534466901897	826.8142227511977	-467.0789958029836	1230.750973181581	692.4975944468438	-403.834807572452	1139.309324304066	590.2678319441444	-440.656854993353	1148.937870848981	429.7931790418087	-406.3315011895551	1177.633269477606	344.8158648834639	-349.9597553309584	1052.538221843005	275.8211008849814	-395.1189172224815	1062.172477106111	172.6123169644715	-313.988687647475	971.0670477383235	108.5801271264021	-337.4831914504398	1089.949638908222	58.01016665198595	-332.9169571793892	1046.547603740273	46.07576723617599	-370.7194194818781	892.229809385597	95.58404256986489	-288.2702511631112	1149.873872635823	811.2581774950968	-128.3254611924415	1277.861569285226	707.2909864375414	-214.501913717789	1246.756246424634	593.7606994650762	-140.5867567407986	1285.09708266538	442.1221165508813	-168.357231044741	1252.236000570098	363.5187604273883	-224.0453578868357	1131.838687875392	391.0068097452182	-149.9590067198773	1053.231441013481	295.9431186448688	-208.574094072555	951.034331217217	297.6415619352342	-170.5056688632253	957.4343639319469	171.088180954976	-177.7128580963059	920.3842751439082	195.1797868547874	-137.3769836729371	895.8199265148652	356.6178702237259	-217.68995030262	
